<?xml version="1.0" standalone="no"?>
<!DOCTYPE svg PUBLIC "-//W3C//DTD SVG 20010904//EN"
 "http://www.w3.org/TR/2001/REC-SVG-20010904/DTD/svg10.dtd">
<svg version="1.0" xmlns="http://www.w3.org/2000/svg"
 width="1024.000000pt" height="1024.000000pt" viewBox="0 0 1024.000000 1024.000000"
 preserveAspectRatio="xMidYMid meet">

<g transform="translate(0.000000,1024.000000) scale(0.100000,-0.100000)"
fill="#000000" stroke="none">
<path d="M0 5120 l0 -5120 5120 0 5120 0 0 5120 0 5120 -5120 0 -5120 0 0
-5120z m6967 835 c12 -9 145 -158 294 -333 441 -512 856 -981 879 -990 12 -5
18 539 10 848 -9 316 -16 362 -65 434 -14 20 -25 39 -25 41 0 6 280 -5 299
-11 10 -3 3 -17 -26 -47 -23 -23 -48 -57 -58 -75 -27 -55 -34 -270 -35 -1009
0 -397 -4 -684 -9 -687 -15 -9 -148 138 -746 824 -88 101 -227 258 -310 349
-82 90 -181 200 -220 244 l-70 80 -3 -574 c-3 -715 3 -767 94 -821 19 -11 31
-24 28 -29 -6 -10 -314 -13 -314 -3 0 4 13 22 30 40 65 74 64 69 68 808 4 788
11 731 -105 842 -40 39 -70 74 -66 77 3 4 79 7 167 7 129 0 166 -3 183 -15z
m-4098 -14 c9 -14 41 -210 41 -249 0 -19 -11 -12 -67 47 -106 107 -175 126
-515 138 l-188 6 0 -341 c0 -188 3 -342 8 -342 306 -17 458 2 534 66 24 19 33
22 39 12 11 -17 12 -298 1 -298 -4 0 -23 15 -41 34 -61 63 -114 77 -302 85
-92 4 -184 5 -203 3 l-36 -4 0 -421 0 -420 193 6 c232 8 333 20 438 53 99 31
146 71 195 165 20 38 41 69 46 69 7 0 8 -21 3 -57 -7 -63 -54 -296 -61 -302
-6 -6 -1214 -7 -1214 0 0 3 14 16 31 28 17 13 41 44 53 70 21 46 21 51 21 771
0 819 3 788 -76 851 -21 17 -39 35 -39 41 0 7 182 9 565 7 462 -4 567 -7 574
-18z m779 -1 c2 -6 -6 -22 -18 -35 -40 -42 -38 -104 5 -220 74 -197 500 -1155
514 -1155 7 0 445 1075 467 1145 9 28 21 100 27 160 l12 110 124 5 c67 3 125
2 127 -1 2 -3 -13 -21 -33 -40 -49 -47 -91 -115 -173 -278 -106 -212 -531
-1222 -630 -1498 -13 -35 -26 -63 -30 -63 -4 0 -33 60 -65 133 -248 568 -636
1429 -681 1508 -62 110 -106 169 -150 201 -24 17 -42 34 -40 37 8 12 541 2
544 -9z m2598 8 c8 -8 28 -120 39 -217 9 -75 3 -76 -52 -6 -45 57 -127 106
-208 124 -80 17 -247 31 -385 31 l-127 0 -7 -37 c-3 -21 -6 -174 -6 -339 l0
-302 100 -7 c194 -14 372 13 444 66 30 21 42 26 48 16 9 -13 11 -297 3 -297
-3 0 -34 22 -70 49 -54 42 -73 50 -132 59 -108 17 -350 25 -373 12 -20 -10
-20 -20 -20 -413 0 -221 4 -408 9 -416 8 -12 41 -13 193 -8 230 8 331 20 436
53 101 32 163 83 213 176 26 50 34 58 37 41 4 -28 -35 -261 -52 -309 l-12 -37
-607 -1 c-334 0 -607 1 -607 3 0 2 18 23 39 46 22 24 46 63 53 87 18 58 15
1424 -2 1490 -8 27 -28 58 -56 87 -24 24 -44 48 -44 53 0 12 1134 7 1146 -4z"/>
</g>
</svg>
