<?xml version="1.0" encoding="UTF-8" standalone="no"?>
<!-- Created with Inkscape (http://www.inkscape.org/) -->

<svg
   version="1.1"
   id="svg1"
   width="700"
   height="310"
   viewBox="0 0 700 310"
   sodipodi:docname="even2.svg"
   inkscape:version="1.3.2 (091e20e, 2023-11-25)"
   xmlns:inkscape="http://www.inkscape.org/namespaces/inkscape"
   xmlns:sodipodi="http://sodipodi.sourceforge.net/DTD/sodipodi-0.dtd"
   xmlns="http://www.w3.org/2000/svg"
   xmlns:svg="http://www.w3.org/2000/svg">
  <defs
     id="defs1" />
  <sodipodi:namedview
     id="namedview1"
     pagecolor="#ffffff"
     bordercolor="#666666"
     borderopacity="1.0"
     inkscape:showpageshadow="2"
     inkscape:pageopacity="0.0"
     inkscape:pagecheckerboard="0"
     inkscape:deskcolor="#d1d1d1"
     inkscape:zoom="0.39995304"
     inkscape:cx="345.04051"
     inkscape:cy="200.02348"
     inkscape:window-width="1440"
     inkscape:window-height="449"
     inkscape:window-x="0"
     inkscape:window-y="25"
     inkscape:window-maximized="0"
     inkscape:current-layer="g1" />
  <g
     inkscape:groupmode="layer"
     inkscape:label="Image"
     id="g1">
    <path
       style="fill:#000000;stroke-width:1.15529"
       d="M -42.365293,163.16421 V -23.089456 H 346.38926 735.14381 V 163.16421 349.41788 H 346.38926 -42.365293 Z m 330.981073,28.23846 c 19.08376,-38.99311 38.56922,-78.73722 43.301,-88.32028 4.7318,-9.58305 8.93125,-18.54966 9.33212,-19.9258 1.00191,-3.43946 -3.06823,-7.53446 -5.75425,-5.78941 -1.03331,0.67133 -5.52427,9.03002 -9.9799,18.57486 -9.41405,20.16679 -37.30949,76.56477 -39.40038,79.65827 -1.25137,1.85143 -4.59817,-3.89678 -27.4938,-47.2213 L 232.55159,79.04966 h -40.89072 c -22.48989,0 -40.66842,0.40555 -40.39672,0.90123 0.2717,0.49567 7.86693,14.41964 16.87829,30.94214 9.01138,16.5225 22.14815,40.58526 29.19285,53.47282 7.0447,12.88755 15.89512,29.10964 19.6676,36.04909 28.87728,53.11944 35.5115,64.74522 36.17501,63.39283 0.40707,-0.8297 16.35412,-33.41199 35.43788,-72.4051 z m 379.07333,-23.13135 c -0.14063,-48.74145 -0.26559,-89.02639 -0.27768,-89.52207 -0.0195,-0.80245 -6.32601,-1.34938 -6.9279,-0.60082 -0.13285,0.16523 -0.50772,18.98176 -0.83304,41.81453 l -0.5915,41.51412 -16.66091,-9.45937 C 606.003,131.35413 556.62444,101.38678 518.27431,76.68824 l -4.16523,-2.68252 v 88.89266 c 0,76.24407 0.22949,89.09871 1.61279,90.34071 1.83586,1.64835 6.10318,0.60504 6.27913,-1.53516 0.0642,-0.78158 0.0175,-19.67092 -0.10386,-41.9763 -0.12135,-22.30538 0.13499,-40.55524 0.56965,-40.55524 3.96445,0 102.05983,58.48495 133.81535,79.78138 6.41445,4.30176 11.66264,7.84772 11.66264,7.8799 0,0.0322 -0.11506,-39.82087 -0.2557,-88.56235 z m -517.41552,83.84374 c 3.2878,-1.35234 3.84495,-5.36739 0.91367,-6.5843 -1.06451,-0.44191 -17.97723,-0.4201 -37.58385,0.0484 l -35.64839,0.85198 -0.736246,-20.19596 c -0.404937,-11.1077 -0.736245,-36.06124 -0.736245,-55.45225 v -35.25635 h 32.694151 c 19.14307,0 33.90697,-0.49886 35.62029,-1.20357 2.16262,-0.88952 2.83358,-1.90855 2.57144,-3.90532 l -0.3547,-2.70175 -35.26559,-0.31729 -35.265591,-0.31728 v -5.80265 c 0,-3.19145 0.329997,-12.44224 0.733335,-20.5573 l 0.733325,-14.75467 31.755451,0.44677 31.75544,0.44678 V 83.25539 79.65048 L 73.705711,79.34089 5.951345,79.03131 v 87.12776 87.12778 l 70.736557,6e-5 c 43.272918,2e-5 71.842738,-0.45494 73.585688,-1.17185 z m 345.84594,0.39761 c 1.97614,-0.57261 2.48205,-1.45826 2.22145,-3.88891 l -0.33745,-3.14744 -37.48704,0.46291 -37.48705,0.46292 v -55.43779 -55.43778 l 32.48878,-0.0165 c 17.86882,-0.01 33.5788,-0.33269 34.91108,-0.71924 2.96529,-0.86037 4.16552,-3.80131 2.45912,-6.02567 -1.0233,-1.33385 -7.83854,-1.65008 -35.56243,-1.65008 H 423.02944 V 106.53636 85.95763 l 31.93341,0.45131 31.93341,0.45132 v -3.60491 -3.60491 l -67.75436,-0.3096 -67.75437,-0.3096 0.26619,86.82742 c 0.1464,47.75509 0.27136,86.96262 0.27768,87.12784 0.0259,0.67593 141.8284,0.20988 144.18813,-0.47387 z"
       id="path1" />
  </g>
</svg>
